<?xml version="1.0" encoding="UTF-8" standalone="no"?>
<!-- Uploaded to: SVG Repo, www.svgrepo.com, Generator: SVG Repo Mixer Tools -->

<svg
   version="1.1"
   id="Icons"
   viewBox="0 0 32 32"
   xml:space="preserve"
   sodipodi:docname="console-joystick-gaming-svgrepo-com.svg"
   inkscape:version="1.3.2 (091e20e, 2023-11-25, custom)"
   xmlns:inkscape="http://www.inkscape.org/namespaces/inkscape"
   xmlns:sodipodi="http://sodipodi.sourceforge.net/DTD/sodipodi-0.dtd"
   xmlns="http://www.w3.org/2000/svg"
   xmlns:svg="http://www.w3.org/2000/svg"><defs
   id="defs2" /><sodipodi:namedview
   id="namedview2"
   pagecolor="#000000"
   bordercolor="#000000"
   borderopacity="0.25"
   inkscape:showpageshadow="2"
   inkscape:pageopacity="0.0"
   inkscape:pagecheckerboard="0"
   inkscape:deskcolor="#d1d1d1"
   inkscape:zoom="8.7946406"
   inkscape:cx="14.213202"
   inkscape:cy="18.306604"
   inkscape:window-width="1280"
   inkscape:window-height="698"
   inkscape:window-x="-6"
   inkscape:window-y="-6"
   inkscape:window-maximized="1"
   inkscape:current-layer="Icons"
   inkscape:export-bgcolor="#00000000" />
<style
   type="text/css"
   id="style1">
	.st0{fill:none;stroke:#000000;stroke-width:2;stroke-linecap:round;stroke-linejoin:round;stroke-miterlimit:10;}
</style>
<path
   d="M21.9,26.4l-1.5-5c0.1-0.5,0.2-0.9,0.2-1.4c0-2.8-2.2-5-5-5c-1.1,0-2.1,0.4-3,1h-2.2c-0.9-0.6-1.9-1-3-1c-2.8,0-5,2.2-5,5  c0,0.5,0.1,0.9,0.2,1.4l-1.5,5c-0.3,0.8-0.1,1.7,0.4,2.4C2.1,29.6,2.9,30,3.8,30c0.9,0,1.7-0.4,2.2-1.1L9.2,25h4.6l3.1,3.9  c0.5,0.7,1.4,1.1,2.2,1.1c0.9,0,1.7-0.4,2.3-1.1C22,28.1,22.1,27.2,21.9,26.4z M15.7,21.7C15.5,21.9,15.3,22,15,22  c-0.3,0-0.5-0.1-0.7-0.3C14.1,21.5,14,21.3,14,21c0-0.3,0.1-0.5,0.3-0.7c0.1-0.1,0.2-0.2,0.3-0.2c0.4-0.2,0.8-0.1,1.1,0.2  c0,0,0.1,0.1,0.1,0.1c0,0.1,0.1,0.1,0.1,0.2c0,0.1,0,0.1,0.1,0.2c0,0.1,0,0.1,0,0.2C16,21.3,15.9,21.5,15.7,21.7z M16.7,19.7  C16.5,19.9,16.3,20,16,20c-0.1,0-0.3,0-0.4-0.1c-0.1-0.1-0.2-0.1-0.3-0.2C15.1,19.5,15,19.3,15,19c0-0.3,0.1-0.5,0.3-0.7  c0.1-0.1,0.2-0.2,0.3-0.2c0.4-0.1,0.8-0.1,1.1,0.2c0.2,0.2,0.3,0.4,0.3,0.7C17,19.3,16.9,19.5,16.7,19.7z"
   id="path1"
   style="fill:#ffffff" />
<path
   d="M28,2h-3c-0.2,0-0.4,0.1-0.6,0.2l-4.3,3.4C19.4,6.2,19,7,19,8v5.9c2.1,1.2,3.6,3.5,3.6,6.1c0,0.5,0,0.9-0.1,1.4l1.4,4.5  c0.3,1.1,0.3,2.3-0.2,3.3l0.8,0.6c0.2,0.1,0.4,0.2,0.6,0.2h3c1.7,0,3-1.3,3-3V5C31,3.3,29.7,2,28,2z M27.7,25.7  C27.5,25.9,27.3,26,27,26c-0.3,0-0.5-0.1-0.7-0.3C26.1,25.5,26,25.3,26,25c0-0.1,0-0.3,0.1-0.4c0.1-0.1,0.1-0.2,0.2-0.3  c0.4-0.4,1-0.4,1.4,0c0.1,0.1,0.2,0.2,0.2,0.3c0,0.1,0.1,0.3,0.1,0.4C28,25.3,27.9,25.5,27.7,25.7z M28,15c0,0.6-0.4,1-1,1  s-1-0.4-1-1V6c0-0.6,0.4-1,1-1s1,0.4,1,1V15z"
   id="path2"
   style="fill:#ffffff" />
</svg>
