<?xml version="1.0" encoding="UTF-8" standalone="no"?>
<!-- Uploaded to: SVG Repo, www.svgrepo.com, Generator: SVG Repo Mixer Tools -->

<svg
   fill="#000000"
   version="1.1"
   id="Capa_1"
   width="800px"
   height="800px"
   viewBox="0 0 44.852 44.852"
   xml:space="preserve"
   sodipodi:docname="computer-with-monitor-svgrepo-com.svg"
   inkscape:version="1.3.2 (091e20e, 2023-11-25, custom)"
   xmlns:inkscape="http://www.inkscape.org/namespaces/inkscape"
   xmlns:sodipodi="http://sodipodi.sourceforge.net/DTD/sodipodi-0.dtd"
   xmlns="http://www.w3.org/2000/svg"
   xmlns:svg="http://www.w3.org/2000/svg"><defs
   id="defs3" /><sodipodi:namedview
   id="namedview3"
   pagecolor="#000000"
   bordercolor="#000000"
   borderopacity="0.25"
   inkscape:showpageshadow="2"
   inkscape:pageopacity="0.0"
   inkscape:pagecheckerboard="0"
   inkscape:deskcolor="#d1d1d1"
   inkscape:zoom="0.44370951"
   inkscape:cx="403.41709"
   inkscape:cy="437.22299"
   inkscape:window-width="1280"
   inkscape:window-height="698"
   inkscape:window-x="-6"
   inkscape:window-y="-6"
   inkscape:window-maximized="1"
   inkscape:current-layer="Capa_1"
   inkscape:export-bgcolor="#00000000" />
<g
   id="g3"
   style="fill:#ffffff">
	<g
   id="Layer_101_43_"
   style="fill:#ffffff">
		<g
   id="g2"
   style="fill:#ffffff">
			<path
   d="M0,27.957v2.354v1.443h27.951v-1.443v-2.354V13.983H0V27.957z M13.976,30.939c-0.597,0-1.082-0.484-1.082-1.082     s0.485-1.08,1.082-1.08c0.598,0,1.081,0.482,1.081,1.08S14.573,30.939,13.976,30.939z M1.215,15.196h25.521v12.761H1.215V15.196z     "
   id="path1"
   style="fill:#ffffff" />
			<polygon
   points="17.523,33.01 10.839,33.01 10.839,36.199 7.497,36.199 7.497,37.947 21.092,37.947 21.092,36.199 17.523,36.199         "
   id="polygon1"
   style="fill:#ffffff" />
			<path
   d="M41.574,8.722V6.904h-7.371v1.817h-4.516v29.226h15.164V8.722H41.574z M33.464,28.633c-0.744,0-1.349-0.604-1.349-1.348     s0.604-1.348,1.349-1.348s1.349,0.604,1.349,1.348S34.208,28.633,33.464,28.633z M38.119,28.916l-0.851-0.059v-3.262l0.851,0.061     V28.916z M41.668,28.352c-0.744,0-1.348-0.604-1.348-1.348s0.604-1.348,1.348-1.348s1.348,0.604,1.348,1.348     S42.412,28.352,41.668,28.352z M43.016,23.334h-10.9v-3.08h10.9V23.334z M43.016,16.856h-10.9v-3.079h10.9V16.856z"
   id="path2"
   style="fill:#ffffff" />
		</g>
	</g>
</g>
</svg>
