<?xml version="1.0" encoding="UTF-8" standalone="no"?>
<!-- Uploaded to: SVG Repo, www.svgrepo.com, Generator: SVG Repo Mixer Tools -->

<svg
   height="800px"
   width="800px"
   version="1.1"
   id="_x32_"
   viewBox="0 0 512 512"
   xml:space="preserve"
   sodipodi:docname="iphone-style-smartphone-material-svgrepo-com.svg"
   inkscape:version="1.3.2 (091e20e, 2023-11-25, custom)"
   xmlns:inkscape="http://www.inkscape.org/namespaces/inkscape"
   xmlns:sodipodi="http://sodipodi.sourceforge.net/DTD/sodipodi-0.dtd"
   xmlns="http://www.w3.org/2000/svg"
   xmlns:svg="http://www.w3.org/2000/svg"><defs
   id="defs1" /><sodipodi:namedview
   id="namedview1"
   pagecolor="#000000"
   bordercolor="#000000"
   borderopacity="0.25"
   inkscape:showpageshadow="2"
   inkscape:pageopacity="0.0"
   inkscape:pagecheckerboard="0"
   inkscape:deskcolor="#d1d1d1"
   inkscape:export-bgcolor="#00000000"
   inkscape:zoom="0.4975"
   inkscape:cx="400"
   inkscape:cy="400"
   inkscape:window-width="1280"
   inkscape:window-height="698"
   inkscape:window-x="-6"
   inkscape:window-y="-6"
   inkscape:window-maximized="1"
   inkscape:current-layer="_x32_" />
<style
   type="text/css"
   id="style1">
	.st0{fill:#000000;}
</style>
<g
   id="g1"
   style="fill:#ffffff">
	<path
   class="st0"
   d="M341.601,0H170.397c-29.29,0-53.12,23.828-53.12,53.121v405.758c0,29.29,23.83,53.121,53.12,53.121h171.204   c29.292,0,53.121-23.832,53.121-53.117V53.121C394.722,23.828,370.893,0,341.601,0z M255.999,480.622   c-11.869,0-21.526-9.658-21.526-21.526c0-11.871,9.656-21.526,21.526-21.526c11.869,0,21.526,9.655,21.526,21.526   C277.525,470.964,267.868,480.622,255.999,480.622z M363.274,67.271v340.156h-214.55V67.271H363.274z"
   id="path1"
   style="fill:#ffffff" />
</g>
</svg>
