<?xml version="1.0" encoding="iso-8859-1"?>
<!-- Uploaded to: SVG Repo, www.svgrepo.com, Generator: SVG Repo Mixer Tools -->
<!DOCTYPE svg PUBLIC "-//W3C//DTD SVG 1.1//EN" "http://www.w3.org/Graphics/SVG/1.1/DTD/svg11.dtd">
<svg fill="#000000" version="1.1" id="Capa_1" xmlns="http://www.w3.org/2000/svg" xmlns:xlink="http://www.w3.org/1999/xlink" 
	 width="800px" height="800px" viewBox="0 0 203.581 203.581"
	 xml:space="preserve">
<g>
	<g id="Layer_45_28_">
		<path d="M203.576,17.618H0v135.704h70.657l17.788,32.52l39.743,0.121l10.908-32.641h64.484V17.618H203.576z M16.765,94.877
			c-3.613,0-6.55-2.927-6.55-6.54c0-3.616,2.933-6.543,6.55-6.543c3.603,0,6.53,2.927,6.53,6.543
			C23.295,91.95,20.373,94.877,16.765,94.877z M124.441,180.758l-32.913-0.106l-16.775-30.65l-15.805-32.326l4.725-2.58
			l14.582,20.089c0.998,1.371,2.58,2.143,4.212,2.143c0.546,0,1.102-0.091,1.638-0.264c2.153-0.721,3.587-2.742,3.562-5.012
			l-0.764-55.482l5.568-0.213l1.335,39.958c0.094,2.793,2.372,5.007,5.159,5.027c0.016,0,0.025,0,0.036,0
			c2.778,0,5.07-2.184,5.195-4.961l2.184-47.299l5.784,0.282l-1.463,48.891c-0.081,2.803,2.062,5.169,4.865,5.347
			c0.111,0.005,0.233,0.011,0.34,0.011c2.646,0,4.9-2.006,5.169-4.678l4.23-41.994l4.88,0.243l-3.646,43.179
			c-0.233,2.747,1.722,5.199,4.454,5.585c0.243,0.036,0.487,0.057,0.73,0.057c2.448,0,4.611-1.727,5.089-4.189l5.058-25.434
			l3.696,0.566l-5.707,37.679L124.441,180.758z M183.955,133.716H145.26l-0.33,2.138l6.556-43.249l-13.746-2.109l-6.022,30.308
			l4.098-48.528l-15.183-0.772l-4.732,46.923l1.614-54.009l-16.084-0.77L99,116.141L97.492,70.97l-15.863,0.612l0.838,60.555
			l-17.265-23.785l-13.109,7.149l8.901,18.21H33.758V37.237h150.196V133.716z"/>
	</g>
</g>
</svg>