<?xml version="1.0" encoding="iso-8859-1"?>
<!-- Uploaded to: SVG Repo, www.svgrepo.com, Generator: SVG Repo Mixer Tools -->
<!DOCTYPE svg PUBLIC "-//W3C//DTD SVG 1.1//EN" "http://www.w3.org/Graphics/SVG/1.1/DTD/svg11.dtd">
<svg fill="#000000" version="1.1" id="Capa_1" xmlns="http://www.w3.org/2000/svg" xmlns:xlink="http://www.w3.org/1999/xlink" 
	 width="800px" height="800px" viewBox="0 0 44.852 44.852"
	 xml:space="preserve">
<g>
	<g id="Layer_101_43_">
		<g>
			<path d="M0,27.957v2.354v1.443h27.951v-1.443v-2.354V13.983H0V27.957z M13.976,30.939c-0.597,0-1.082-0.484-1.082-1.082
				s0.485-1.08,1.082-1.08c0.598,0,1.081,0.482,1.081,1.08S14.573,30.939,13.976,30.939z M1.215,15.196h25.521v12.761H1.215V15.196z
				"/>
			<polygon points="17.523,33.01 10.839,33.01 10.839,36.199 7.497,36.199 7.497,37.947 21.092,37.947 21.092,36.199 17.523,36.199 
							"/>
			<path d="M41.574,8.722V6.904h-7.371v1.817h-4.516v29.226h15.164V8.722H41.574z M33.464,28.633c-0.744,0-1.349-0.604-1.349-1.348
				s0.604-1.348,1.349-1.348s1.349,0.604,1.349,1.348S34.208,28.633,33.464,28.633z M38.119,28.916l-0.851-0.059v-3.262l0.851,0.061
				V28.916z M41.668,28.352c-0.744,0-1.348-0.604-1.348-1.348s0.604-1.348,1.348-1.348s1.348,0.604,1.348,1.348
				S42.412,28.352,41.668,28.352z M43.016,23.334h-10.9v-3.08h10.9V23.334z M43.016,16.856h-10.9v-3.079h10.9V16.856z"/>
		</g>
	</g>
</g>
</svg>