<?xml version="1.0" encoding="utf-8"?>
<!-- Generator: Adobe Illustrator 28.2.0, SVG Export Plug-In . SVG Version: 6.00 Build 0)  -->
<svg version="1.1" id="Layer_1" xmlns="http://www.w3.org/2000/svg" xmlns:xlink="http://www.w3.org/1999/xlink" x="0px" y="0px"
	 viewBox="0 0 1000 1000" style="enable-background:new 0 0 1000 1000;" xml:space="preserve">
<style type="text/css">
	.st0{fill:#FFFFFF;}
	.st1{fill:#090C21;}
	.st2{fill:url(#SVGID_1_);}
	.st3{fill:url(#SVGID_00000039115464761132609750000018163080106320938901_);}
	.st4{fill:url(#SVGID_00000076582828895809110790000006633336311477396924_);}
	.st5{fill:url(#SVGID_00000085220296723657961940000013843782065920290708_);}
	.st6{fill:url(#SVGID_00000010284162188902954030000014732465194524152758_);}
	.st7{fill:url(#SVGID_00000170248244905203267220000011430026268254611855_);}
	.st8{fill:url(#SVGID_00000104670202735311758040000014511158177763589553_);}
	.st9{fill:url(#SVGID_00000133490617245775179300000000302867083366128780_);}
	.st10{fill:url(#SVGID_00000113319721545379970540000014275353440402813096_);}
	.st11{fill:#FDFFFE;}
	.st12{fill:url(#SVGID_00000114048959218794920030000004873217548825321118_);}
	.st13{fill:url(#SVGID_00000132058319709635229850000015335758973713476744_);}
	.st14{fill:url(#SVGID_00000142158821503328652690000002351320816983615637_);}
	.st15{fill:url(#SVGID_00000175316143080804544950000001779600193182926735_);}
	.st16{fill:url(#SVGID_00000039108676655936927950000007790931071259679110_);}
	.st17{fill:url(#SVGID_00000130637345627233987300000004501373850793640638_);}
	.st18{fill:url(#SVGID_00000177443110102495848790000018187574175866771588_);}
	.st19{fill:url(#SVGID_00000029754427535376948630000007176506659221520025_);}
	.st20{fill:url(#SVGID_00000182526047941183400180000008630538008457212337_);}
	.st21{fill:url(#SVGID_00000145777588984480490220000015159931118939702432_);}
	.st22{fill:url(#SVGID_00000048487740166508453610000007842150975242204041_);}
	.st23{fill:url(#SVGID_00000108991452536457923590000006371842730018438309_);}
	.st24{fill:url(#SVGID_00000090267062476822915480000001617905024545363606_);}
	.st25{fill:url(#SVGID_00000018204918789492230990000005510196307795773848_);}
	.st26{fill:url(#SVGID_00000008855641053425956740000001977327138742367365_);}
	.st27{fill:url(#SVGID_00000047059104831192119430000002188171065243653264_);}
	.st28{fill:url(#SVGID_00000000920512083448900940000016408615160711681205_);}
	.st29{fill:url(#SVGID_00000003790331632203710940000000002142511794109869_);}
</style>
<g>
	<rect x="-36.17" y="-36.17" class="st1" width="1072.34" height="1072.34"/>
</g>
<linearGradient id="SVGID_1_" gradientUnits="userSpaceOnUse" x1="334.5604" y1="623.2472" x2="677.3165" y2="335.6407">
	<stop  offset="0" style="stop-color:#B711DF"/>
	<stop  offset="1" style="stop-color:#0FE6C4"/>
</linearGradient>
<path class="st2" d="M493.57,749.92c-6.43-2.99-12.77-6.19-19.31-8.93c-41.56-17.42-77.24-42.89-106.05-77.64
	c-33.2-40.04-53.61-85.82-60.3-137.46c-1.69-13.03-2.49-26.26-2.6-39.41c-0.32-41.18-0.03-82.37-0.21-123.55
	c-0.03-6.47,2.24-10.47,8-13.61c59.25-32.28,118.39-64.74,177.51-97.26c4.59-2.53,8.61-2.7,13.29-0.21
	C565,284.5,626.12,317.05,687.3,349.52c5.38,2.85,7.62,6.7,7.59,12.86c-0.18,41.35-0.02,82.69-0.11,124.04
	c-0.24,109.57-63.31,205.65-163.74,249.57c-10.55,4.61-21.07,9.29-31.61,13.94C497.48,749.92,495.53,749.92,493.57,749.92z
	 M323.94,438.65c-0.37,0.01-0.74,0.03-1.1,0.04c1.19,28.43,0.58,57.07,3.94,85.25c6.89,57.75,32.85,106.65,74.29,147.38
	c26.81,26.35,58.88,44.22,93.48,57.98c1.32,0.52,3.24,0.57,4.51,0.01c13.54-5.93,27.52-11.1,40.43-18.21
	c88.78-48.89,134.25-124.42,136.5-225.6c0.86-38.56,0.09-77.16,0.22-115.74c0.01-3.55-1-5.47-4.21-7.17
	c-56.87-30.17-113.68-60.45-170.45-90.82c-2.95-1.58-5.13-1.52-8.04,0.08c-55.13,30.33-110.3,60.58-165.54,90.71
	c-3.23,1.76-4.14,3.74-4.12,7.23C324.01,392.75,323.94,415.7,323.94,438.65z M465.68,527.67c-12.15-14.22-24.25-28.49-36.45-42.66
	c-4.2-4.88-10.01-5.49-14.15-1.76c-4.01,3.6-4.11,9.09-0.01,13.92c15.91,18.71,31.85,37.4,47.84,56.04
	c4.43,5.16,9.08,5.53,14.52,1.43c0.78-0.59,1.55-1.19,2.3-1.81c28.76-23.41,57.52-46.82,86.28-70.23
	c8.45-6.88,16.97-13.68,25.33-20.66c4.05-3.38,4.97-7.71,2.83-11.75c-2.17-4.1-5.75-5.84-10.17-4.84c-2.09,0.47-4.11,1.91-5.83,3.31
	c-25.78,20.89-51.5,41.84-77.24,62.78c-9.56,7.78-19.12,15.55-28.94,23.53C469.68,532.29,467.67,529.99,465.68,527.67z"/>
</svg>
