<?xml version="1.0" encoding="utf-8"?>
<!-- Generator: Adobe Illustrator 28.2.0, SVG Export Plug-In . SVG Version: 6.00 Build 0)  -->
<svg version="1.1" id="Layer_1" xmlns="http://www.w3.org/2000/svg" xmlns:xlink="http://www.w3.org/1999/xlink" x="0px" y="0px"
	 viewBox="0 0 1000 1000" style="enable-background:new 0 0 1000 1000;" xml:space="preserve">
<style type="text/css">
	.st0{fill:#FFFFFF;}
	.st1{fill:#090C21;}
	.st2{fill:url(#SVGID_1_);}
	.st3{fill:url(#SVGID_00000063591004606566094910000008568201838175806604_);}
	.st4{fill:url(#SVGID_00000120553824810218832580000013131999930002193319_);}
	.st5{fill:url(#SVGID_00000062910000358196045540000013233854490839855291_);}
	.st6{fill:url(#SVGID_00000161593023450974973230000015409873493374149279_);}
	.st7{fill:url(#SVGID_00000120522556065592048390000018378252327443844524_);}
	.st8{fill:url(#SVGID_00000109012967802334782420000012384021766281342611_);}
	.st9{fill:url(#SVGID_00000013181485301025211130000015862264095021464727_);}
	.st10{fill:url(#SVGID_00000084507775179872034720000016467179915228817813_);}
	.st11{fill:#FDFFFE;}
	.st12{fill:url(#SVGID_00000031188102162485318430000005727547335825275570_);}
	.st13{fill:url(#SVGID_00000170965672576526389790000015343473563793162889_);}
	.st14{fill:url(#SVGID_00000153692299657951717550000010397583802138567855_);}
	.st15{fill:url(#SVGID_00000129180605144658046390000000010291540940218807_);}
	.st16{fill:url(#SVGID_00000052075625980426205170000016187560470909469594_);}
	.st17{fill:url(#SVGID_00000126324932461934835250000004671587391452338365_);}
	.st18{fill:url(#SVGID_00000013890329355185672310000000021483436890444430_);}
	.st19{fill:url(#SVGID_00000106851558840771277690000005037638506801222807_);}
	.st20{fill:url(#SVGID_00000087411135486950421790000017347042083675982222_);}
	.st21{fill:url(#SVGID_00000103260278642716935080000002285021218573433017_);}
	.st22{fill:url(#SVGID_00000173139199420349732240000012500267103671213440_);}
	.st23{fill:url(#SVGID_00000106856788235462615420000008815806785494433681_);}
	.st24{fill:url(#SVGID_00000121981270527890809570000012207234846190876333_);}
	.st25{fill:url(#SVGID_00000080170136945762321520000017427250765005888683_);}
	.st26{fill:url(#SVGID_00000170276021281362027070000000406541907750715282_);}
	.st27{fill:url(#SVGID_00000111905426370134716810000018076986542349173167_);}
	.st28{fill:url(#SVGID_00000066517355818121254100000001079403124066405266_);}
	.st29{fill:url(#SVGID_00000080899023209776134880000016502162359778658465_);}
</style>
<g>
	<rect x="-36.17" y="-36.17" class="st1" width="1072.34" height="1072.34"/>
</g>
<linearGradient id="SVGID_1_" gradientUnits="userSpaceOnUse" x1="265.6155" y1="684.8835" x2="778.4257" y2="254.5846">
	<stop  offset="0" style="stop-color:#B711DF"/>
	<stop  offset="1" style="stop-color:#0FE6C4"/>
</linearGradient>
<path class="st2" d="M796.81,283c-3.27,3.11-6.09,7-9.9,9.2c-18.84,10.87-37.94,21.3-56.95,31.86c-1.68,0.93-3.37,1.91-5.17,2.55
	c-5.57,1.99-11.23-0.03-14.05-4.84c-2.92-5-2.06-11.76,3.26-14.82c22.18-12.76,44.52-25.27,67.09-37.33
	c6.05-3.23,11.18-0.07,15.72,7.6C796.81,279.14,796.81,281.07,796.81,283z M443.3,590.63c57.92-11.36,115.84-22.72,173.77-34.05
	c15.71-3.07,31.44-6.09,47.18-9.02c23.48-4.36,35.46-30.25,23.48-51.74c-11.46-20.56-23.34-40.89-35.35-61.13
	c-2.44-4.11-2.19-6.91,0.46-10.69c6.77-9.63,12.95-19.67,19.63-29.36c3.95-5.74,4.31-11.09,0.64-17.18
	c-7.08-11.73-13.84-23.65-20.56-35.58c-3.18-5.65-7.6-8.34-14.18-7.86c-12.33,0.9-24.69,1.35-37,2.39
	c-4.35,0.37-6.46-1.22-8.53-4.86c-12.74-22.5-25.77-44.83-38.64-67.26c-5.82-10.14-14.23-16.81-25.86-18.53
	c-15.39-2.27-26.4,4.75-35.68,16.63c-48.83,62.56-97.92,124.93-147.02,187.28c-2.19,2.79-5.09,5.3-8.15,7.09
	c-32.15,18.79-64.79,36.78-96.52,56.24c-34.73,21.3-47.29,65.73-30.23,102.11c17.62,37.58,59.8,56.05,98.93,43.07
	c4.04-1.34,5.59-0.51,7.58,2.98c17.82,31.15,35.73,62.26,53.92,93.19c3.28,5.57,7.47,10.86,12.18,15.28
	c13.59,12.74,36.25,14.58,52.92,4.93c16.6-9.61,26.78-29.86,21.99-47.68c-2.8-10.4-8.26-20.22-13.43-29.81
	c-8.32-15.42-17.39-30.44-26.35-45.98c9.37-5.41,18.39-10.57,27.37-15.82c9-5.27,10.53-11.07,5.33-20.23
	c-4.26-7.52-8.63-14.98-13.3-23.08C440.32,591.37,441.79,590.92,443.3,590.63z M627.71,530.82c-19.68,3.9-38.76,7.71-57.85,11.44
	c-46.57,9.12-93.17,18.13-139.71,27.41c-3.81,0.76-5.39-0.21-7.19-3.36c-18.79-32.83-37.72-65.58-56.69-98.3
	c-1.49-2.57-2.09-4.34,0.09-7.1c41.96-53.25,83.78-106.6,125.63-159.93c0.47-0.61,0.81-1.32,1.55-2.57
	C538.52,376.34,582.98,453.34,627.71,530.82z M400.34,581.21c-28.72,16.59-57.32,33.37-86.19,49.68
	c-33.17,18.75-72.97,3.58-84.82-32c-7.9-23.71,1.07-50.72,21.92-64.96c6.83-4.67,14.14-8.65,21.31-12.8
	c24.19-14,48.42-27.94,73.22-42.24c19.3,33.43,38.54,66.74,57.86,100.19C402.27,579.97,401.33,580.63,400.34,581.21z M514.27,272.64
	c5.48-6.1,13.4-5.66,18.29,0.97c0.91,1.24,1.65,2.61,2.42,3.94c43.62,75.53,87.24,151.06,130.84,226.6
	c1.06,1.83,2.18,3.68,2.87,5.66c1.61,4.65,0.86,9.51-3.24,11.9c-3.91,2.29-8.89,2.95-13.5,3.68c-0.81,0.13-2.24-2.83-3.2-4.48
	c-28.67-49.63-57.31-99.26-85.96-148.9c-16.78-29.08-33.56-58.17-50.33-87.25c-1.05-1.83-2.07-3.68-3.22-5.73
	C510.96,276.85,512.49,274.63,514.27,272.64z M374.99,622.65c0.93,1.43,1.7,2.5,2.35,3.63c18.23,31.55,36.41,63.14,54.69,94.66
	c5.2,8.97,5.97,17.86,0.03,26.67c-8.53,12.66-27.17,13.36-36.89,1.47c-1.34-1.63-2.46-3.46-3.51-5.29
	c-18.24-31.55-36.46-63.11-54.67-94.67c-0.56-0.97-1.05-1.98-1.82-3.45C348.53,637.94,361.64,630.36,374.99,622.65z M633.31,357.71
	c0.94-0.04,2.25,1.35,2.86,2.38c4.52,7.62,8.98,15.28,13.26,23.04c0.58,1.06,0.58,3.06-0.05,4.07c-3.97,6.34-8.18,12.52-12.91,19.65
	c-9.3-16.09-18.16-31.44-27.55-47.69C617.67,358.59,625.48,358,633.31,357.71z M395.31,610.96c6.61-3.85,13.02-7.57,20-11.64
	c3.78,6.55,7.49,12.97,11.58,20.05c-6.64,3.85-13.02,7.56-20.01,11.61C402.94,624.16,399.3,617.87,395.31,610.96z M713.71,387.25
	c-1.15,5.93,2.28,11.35,9.25,13.32c14.06,3.99,28.21,7.69,42.36,11.33c7.8,2.01,13.8-1.18,15.52-7.84
	c1.72-6.66-1.92-12.23-9.8-14.44c-10.37-2.91-20.8-5.59-31.21-8.37c-4.63-1.24-9.26-2.47-12.09-3.23
	C719.58,377.77,714.84,381.4,713.71,387.25z M656.85,286.7c6.24,1.37,11.73-1.61,13.71-8.46c4.16-14.41,7.99-28.92,11.67-43.45
	c1.88-7.44-1.4-13.19-7.9-15.04c-6.21-1.76-12.2,1.88-14.3,9.23c-3.48,12.2-6.67,24.49-9.94,36.75c-0.79,2.96-1.43,5.97-1.81,7.58
	C647.97,280.86,651.31,285.48,656.85,286.7z"/>
</svg>
