<?xml version="1.0" encoding="UTF-8" standalone="no"?>
<!-- Generator: Adobe Illustrator 28.2.0, SVG Export Plug-In . SVG Version: 6.00 Build 0)  -->

<svg
   version="1.1"
   id="Layer_1"
   x="0px"
   y="0px"
   viewBox="0 0 1000 1000"
   style="enable-background:new 0 0 1000 1000;"
   xml:space="preserve"
   sodipodi:docname="reviews.svg"
   inkscape:version="1.3.2 (091e20e, 2023-11-25, custom)"
   xmlns:inkscape="http://www.inkscape.org/namespaces/inkscape"
   xmlns:sodipodi="http://sodipodi.sourceforge.net/DTD/sodipodi-0.dtd"
   xmlns="http://www.w3.org/2000/svg"
   xmlns:svg="http://www.w3.org/2000/svg"><defs
   id="defs2" /><sodipodi:namedview
   id="namedview2"
   pagecolor="#ffffff"
   bordercolor="#000000"
   borderopacity="0.25"
   inkscape:showpageshadow="2"
   inkscape:pageopacity="0.0"
   inkscape:pagecheckerboard="0"
   inkscape:deskcolor="#d1d1d1"
   inkscape:zoom="0.32102648"
   inkscape:cx="303.71326"
   inkscape:cy="426.75607"
   inkscape:window-width="1280"
   inkscape:window-height="650"
   inkscape:window-x="-6"
   inkscape:window-y="-6"
   inkscape:window-maximized="1"
   inkscape:current-layer="Layer_1" />
<style
   type="text/css"
   id="style1">
	.st0{fill:#FFFFFF;}
	.st1{fill:#090C21;}
	.st2{fill:url(#SVGID_1_);}
	.st3{fill:url(#SVGID_00000081621633333793204360000006972478725118204589_);}
	.st4{fill:url(#SVGID_00000018223666342005032830000003556176340450363580_);}
	.st5{fill:url(#SVGID_00000075147322888382323510000004923379972509535890_);}
	.st6{fill:url(#SVGID_00000054240863112905087220000001730244941649557940_);}
	.st7{fill:url(#SVGID_00000040569401744797596560000004789716123704858296_);}
	.st8{fill:url(#SVGID_00000001651440712923256690000005157954898007669896_);}
	.st9{fill:url(#SVGID_00000085931705554576180000000015517468117621718205_);}
	.st10{fill:url(#SVGID_00000114045956026555812240000002815365427928421018_);}
	.st11{fill:#FDFFFE;}
	.st12{fill:url(#SVGID_00000105388984324914570380000014525314734975195310_);}
	.st13{fill:url(#SVGID_00000021108562156519152870000013576882959158274207_);}
	.st14{fill:url(#SVGID_00000012450532703352433910000006179510280857875860_);}
	.st15{fill:url(#SVGID_00000010280577563357530920000009682707052759486126_);}
	.st16{fill:url(#SVGID_00000027569049233724649460000013720282354675542677_);}
	.st17{fill:url(#SVGID_00000109745462430895532020000007668352492247138475_);}
	.st18{fill:url(#SVGID_00000147915156916430425270000000381575002796274338_);}
	.st19{fill:url(#SVGID_00000075842433445516380320000003758312482015377073_);}
	.st20{fill:url(#SVGID_00000176745692804641208980000003835311135728056473_);}
	.st21{fill:url(#SVGID_00000119077089591170101630000017011347487275343033_);}
	.st22{fill:url(#SVGID_00000155141664186924891310000013558273112117581955_);}
	.st23{fill:url(#SVGID_00000110436874275822395110000016095954248742220180_);}
	.st24{fill:url(#SVGID_00000070107250107135665410000002338885739397386904_);}
	.st25{fill:url(#SVGID_00000169548820237406772060000004394713985400415894_);}
	.st26{fill:url(#SVGID_00000090262955062030741330000016997946392177883280_);}
	.st27{fill:url(#SVGID_00000047048845070463090010000000982405118967096731_);}
	.st28{fill:url(#SVGID_00000032639184561010988700000014480563009780235148_);}
	.st29{fill:url(#SVGID_00000083794497457089474600000007072683495525598138_);}
</style>
<g
   id="g1"
   sodipodi:insensitive="true">
	<rect
   x="-36.169998"
   y="-36.169998"
   class="st1"
   width="1072.34"
   height="1072.34"
   id="rect1" />
</g>
<linearGradient
   id="SVGID_1_"
   gradientUnits="userSpaceOnUse"
   x1="256.8647"
   y1="659.7472"
   x2="691.8669"
   y2="294.7371"
   gradientTransform="matrix(0.92220945,0,0,0.92220945,38.899675,13.978976)">
	<stop
   offset="0"
   style="stop-color:#B711DF"
   id="stop1" />
	<stop
   offset="1"
   style="stop-color:#0FE6C4"
   id="stop2" />
</linearGradient>

<path
   sodipodi:type="star"
   style="opacity:0.8359375;fill:#ffff00;stroke-width:0.417"
   id="path3-5"
   inkscape:flatsided="false"
   sodipodi:sides="5"
   sodipodi:cx="96.916298"
   sodipodi:cy="334.80176"
   sodipodi:r1="101.82312"
   sodipodi:r2="50.91156"
   sodipodi:arg1="0.89267702"
   sodipodi:arg2="1.5209955"
   inkscape:rounded="0"
   inkscape:randomized="0"
   d="M 160.79295,414.09691 99.450688,385.6502 41.241097,420.05561 49.339728,352.92514 -1.3695196,308.19638 64.97797,295.15418 l 26.869553,-62.0493 32.906377,59.06995 67.31554,6.38017 -46.01023,49.54944 z"
   inkscape:transform-center-x="-0.88381463"
   inkscape:transform-center-y="-6.2842047"
   transform="matrix(0.76436111,0,-0.0662209,0.76436111,447.20801,506.94851)" /><path
   sodipodi:type="star"
   style="opacity:0.8359375;fill:#ffff00;stroke-width:0.417"
   id="path3"
   inkscape:flatsided="false"
   sodipodi:sides="5"
   sodipodi:cx="96.916298"
   sodipodi:cy="334.80176"
   sodipodi:r1="101.82312"
   sodipodi:r2="50.91156"
   sodipodi:arg1="0.89267702"
   sodipodi:arg2="1.5209955"
   inkscape:rounded="0"
   inkscape:randomized="0"
   d="M 160.79295,414.09691 99.450688,385.6502 41.241097,420.05561 49.339728,352.92514 -1.3695196,308.19638 64.97797,295.15418 l 26.869553,-62.0493 32.906377,59.06995 67.31554,6.38017 -46.01023,49.54944 z"
   inkscape:transform-center-x="-0.88381463"
   inkscape:transform-center-y="-6.2842047"
   transform="matrix(0.76436111,0,-0.0662209,0.76436111,87.139908,168.44485)" /><path
   sodipodi:type="star"
   style="opacity:0.8359375;fill:#ffff00;stroke-width:0.417"
   id="path3-56"
   inkscape:flatsided="false"
   sodipodi:sides="5"
   sodipodi:cx="96.916298"
   sodipodi:cy="334.80176"
   sodipodi:r1="101.82312"
   sodipodi:r2="50.91156"
   sodipodi:arg1="0.89267702"
   sodipodi:arg2="1.5209955"
   inkscape:rounded="0"
   inkscape:randomized="0"
   d="M 160.79295,414.09691 99.450688,385.6502 41.241097,420.05561 49.339728,352.92514 -1.3695196,308.19638 64.97797,295.15418 l 26.869553,-62.0493 32.906377,59.06995 67.31554,6.38017 -46.01023,49.54944 z"
   inkscape:transform-center-x="-0.88381463"
   inkscape:transform-center-y="-6.2842047"
   transform="matrix(0.76436111,0,-0.0662209,0.76436111,807.27611,168.44485)" /><path
   sodipodi:type="star"
   style="opacity:0.8359375;fill:#ffff00;stroke-width:0.417"
   id="path3-7"
   inkscape:flatsided="false"
   sodipodi:sides="5"
   sodipodi:cx="96.916298"
   sodipodi:cy="334.80176"
   sodipodi:r1="101.82312"
   sodipodi:r2="50.91156"
   sodipodi:arg1="0.89267702"
   sodipodi:arg2="1.5209955"
   inkscape:rounded="0"
   inkscape:randomized="0"
   d="M 160.79295,414.09691 99.450688,385.6502 41.241097,420.05561 49.339728,352.92514 -1.3695196,308.19638 64.97797,295.15418 l 26.869553,-62.0493 32.906377,59.06995 67.31554,6.38017 -46.01023,49.54944 z"
   inkscape:transform-center-x="-0.88381463"
   inkscape:transform-center-y="-6.2842047"
   transform="matrix(0.76436111,0,-0.0662209,0.76436111,757.5229,439.86335)" /><path
   class="st2"
   d="m 311.74455,485.24646 c 0,-56.87266 0,-113.74532 0,-170.61797 0,-17.71565 7.87567,-29.60293 22.8708,-33.88198 3.83639,-1.09743 7.99556,-1.4202 12.00717,-1.42942 98.80552,-0.083 197.61104,-0.0922 296.41656,-0.0646 6.5108,0 13.11382,-0.19366 19.51395,0.78388 14.3588,2.19486 25.03799,14.79224 25.64665,29.32626 0.0646,1.59542 0.0553,3.19085 0.0553,4.78627 0,80.08467 0,160.17856 0,240.26323 0,21.90247 -12.96627,34.80418 -34.9333,34.80418 -80.37977,-0.0184 -160.75955,-0.009 -241.13932,-0.10144 -3.31074,0 -5.60704,0.97754 -7.95867,3.29229 -25.30543,24.95498 -50.73997,49.79931 -76.10073,74.69896 -2.98795,2.93263 -6.15113,4.86927 -10.47629,3.20007 -3.4214,-1.31876 -5.46871,-3.72573 -5.67159,-7.47912 -0.083,-1.59542 -0.0553,-3.19084 -0.0553,-4.78627 0,-57.6012 0,-115.2024 0,-172.8036 -0.0461,0.009 -0.11066,0.009 -0.17522,0.009 z m 17.68798,156.26839 c 1.62309,-1.48476 2.48997,-2.22253 3.29229,-3.01563 20.72205,-20.32549 41.49943,-40.58643 62.09236,-61.03182 3.97473,-3.94705 8.15233,-5.73614 13.84237,-5.72692 81.70775,0.14756 163.40629,-0.0461 245.11405,0.26744 10.69763,0.0369 17.42053,-6.1788 17.37442,-17.58653 -0.31355,-80.25067 -0.16599,-160.50133 -0.16599,-240.76122 0,-11.83195 -5.09982,-16.9871 -16.84877,-16.9871 -102.60503,0 -205.20083,0.0922 -307.80585,-0.14755 -10.51319,-0.0277 -17.0701,6.45546 -17.05165,17.06087 0.23977,107.53884 0.14755,215.06847 0.14755,322.60731 0.009,1.42943 0.009,2.85885 0.009,5.32115 z M 499.86606,370.90171 c 36.54716,0 73.10354,0 109.65071,-0.009 4.35282,0 8.70565,0.0738 13.04926,-0.17522 4.38972,-0.249 7.765,-3.64273 8.10622,-7.70045 0.35044,-4.19606 -2.66519,-8.29989 -6.94424,-9.26821 -1.2542,-0.28588 -2.58218,-0.31355 -3.8825,-0.31355 -75.86095,-0.0369 -151.71268,-0.0645 -227.57363,-0.083 -4.78626,0 -9.58175,-0.12911 -14.34957,0.19367 -4.99838,0.34121 -8.595,4.43582 -8.32756,8.89009 0.28589,4.73094 3.86406,8.11545 8.88088,8.36444 1.44787,0.0738 2.89574,0.0369 4.35283,0.0369 39.01868,0 78.03736,0 117.04682,0 -0.009,0.0277 -0.009,0.0461 -0.009,0.0646 z m 0.53488,54.53946 c -35.82783,0 -71.65567,0 -107.48351,0 -5.07215,0 -10.16275,-0.0922 -15.22568,0.14756 -4.14994,0.20288 -7.516,3.46751 -8.06933,7.29467 -0.52566,3.63351 1.68764,7.81112 5.26582,9.12988 1.84441,0.68243 3.95627,0.84843 5.94825,0.84843 75.86095,0.0646 151.7219,0.083 227.58285,0.10144 4.35282,0 8.70565,0.0738 13.04926,-0.083 5.33037,-0.19367 9.21287,-3.89173 9.20365,-8.512 -0.009,-4.97993 -3.8825,-8.67799 -9.30509,-8.87165 -1.30032,-0.0461 -2.60986,-0.0184 -3.91939,-0.0184 -39.01869,0 -78.03737,0 -117.05605,0 0.009,-0.009 0.009,-0.0277 0.009,-0.0369 z m -37.28493,71.88623 c -22.47424,0 -44.94848,0 -67.43195,0 -5.50559,0 -11.0204,-0.11989 -16.52599,0.0738 -5.80992,0.20288 -9.63709,3.75339 -9.59098,8.54888 0.0461,5.13671 3.84561,8.59499 9.80308,8.88088 1.44787,0.0738 2.89574,0.0277 4.35283,0.0277 51.19185,0.0185 102.37447,0.0461 153.56632,0.0369 4.05772,0 8.14311,0.0646 12.15472,-0.42421 4.38972,-0.53489 7.3869,-4.3805 7.23012,-8.44744 -0.16599,-4.38972 -3.42139,-7.94945 -7.85722,-8.44744 -1.57698,-0.17522 -3.18162,-0.12911 -4.77705,-0.12911 -26.97462,-0.009 -53.94925,-0.009 -80.91465,-0.009 -0.009,-0.0369 -0.009,-0.0738 -0.009,-0.11067 z"
   id="path2"
   style="fill:url(#SVGID_1_);stroke-width:0.922209" /><path
   sodipodi:type="star"
   style="opacity:0.8359375;fill:#ffff00;stroke-width:0.417"
   id="path3-8"
   inkscape:flatsided="false"
   sodipodi:sides="5"
   sodipodi:cx="96.916298"
   sodipodi:cy="334.80176"
   sodipodi:r1="101.82312"
   sodipodi:r2="50.91156"
   sodipodi:arg1="0.89267702"
   sodipodi:arg2="1.5209955"
   inkscape:rounded="0"
   inkscape:randomized="0"
   d="M 160.79295,414.09691 99.450688,385.6502 41.241097,420.05561 49.339728,352.92514 -1.3695196,308.19638 64.97797,295.15418 l 26.869553,-62.0493 32.906377,59.06995 67.31554,6.38017 -46.01023,49.54944 z"
   inkscape:transform-center-x="-0.88381463"
   inkscape:transform-center-y="-6.2842047"
   transform="matrix(0.76436111,0,-0.0662209,0.76436111,136.89312,439.86335)" /></svg>
