<?xml version="1.0" encoding="utf-8"?>
<!-- Generator: Adobe Illustrator 28.2.0, SVG Export Plug-In . SVG Version: 6.00 Build 0)  -->
<svg version="1.1" id="Layer_1" xmlns="http://www.w3.org/2000/svg" xmlns:xlink="http://www.w3.org/1999/xlink" x="0px" y="0px"
	 viewBox="0 0 1000 1000" style="enable-background:new 0 0 1000 1000;" xml:space="preserve">
<style type="text/css">
	.st0{fill:#090C21;}
	.st1{fill:url(#SVGID_1_);}
	.st2{fill:#FFFFFF;}
	.st3{fill:url(#SVGID_00000048468307965029217750000014787761123693206186_);}
	.st4{fill:url(#SVGID_00000085236442666133653650000012360246308171713206_);}
</style>
<rect x="-19.47" y="-19.47" class="st0" width="1038.94" height="1038.94"/>
<linearGradient id="SVGID_1_" gradientUnits="userSpaceOnUse" x1="313.8756" y1="716.0263" x2="686.1125" y2="272.4117">
	<stop  offset="0" style="stop-color:#B711DF"/>
	<stop  offset="1" style="stop-color:#0FE6C4"/>
</linearGradient>
<path class="st1" d="M351.33,398.31c18.21-27.88,44.08-50.32,74.59-64.34V216.1h147.69h0.44v95.36v22.52c0.04,0,0.04,0,0.04,0
	c61.02,28.06,103.42,89.74,103.42,161.34s-42.4,133.27-103.42,161.34V437.29c0-14.89-12.04-26.93-26.93-26.93h-94.33
	c-14.85,0-26.9,12.04-26.9,26.93v219.36C364.9,628.58,322.5,566.91,322.5,495.31C322.5,459.51,333.12,426.19,351.33,398.31z
	 M480.44,638.11c0,10.8,8.76,19.56,19.56,19.56c10.8,0,19.56-8.76,19.56-19.56s-8.76-19.56-19.56-19.56
	C489.2,618.55,480.44,627.31,480.44,638.11z M624.37,232.63v6.06v6.13v45.29v6.42v6.5c62.44,40.76,103.75,111.23,103.75,191.19
	c0,125.79-102.33,228.12-228.12,228.12c-125.79,0-228.15-102.33-228.15-228.12c0-79.55,40.95-149.73,102.84-190.57v-6.53v-6.46
	V245.3v-6.13v-6.09c-97.18,46.82-164.36,146.26-164.36,261.14c0,159.73,129.95,289.68,289.68,289.68
	c159.73,0,289.68-129.95,289.68-289.68C789.68,378.97,722.02,279.24,624.37,232.63z"/>
</svg>
